<svg fill="none" xmlns="http://www.w3.org/2000/svg" viewBox="0 0 197 110"><path d="m22.792 79.008 8.064 23.912h.28l6.216-21.784-3.92-.84v-1.288h8.904v1.288l-2.632.84-8.064 27.496h-2.408L21 84.888h-.168l-7.28 23.744h-2.408L2.576 81.136 0 80.296v-1.288h10.528v1.288l-3.976.84 6.44 21.28h.28l7-23.408h2.52Z" fill="#F74F70"/><path d="M50.646 66.856c.746 0 1.4.261 1.96.784.56.485.84 1.101.84 1.848 0 .71-.28 1.344-.84 1.904-.56.523-1.214.784-1.96.784-.822 0-1.493-.261-2.016-.784-.486-.56-.728-1.195-.728-1.904 0-.747.242-1.363.728-1.848.523-.523 1.194-.784 2.016-.784Zm-5.992 12.992 7.504-1.12.504.504v27.384l4.592.728v1.288H44.598v-1.288l4.424-.728V81.752l-4.368-.672v-1.232Z" fill="#F74F70"/><path d="M62.571 80.968H58.26V79.68l4.312-.784V72.12l3.584-.56v7.448h9.016v1.96h-9.016v20.72c0 1.829.392 3.099 1.176 3.808.784.709 2.296 1.064 4.536 1.064.598 0 1.25-.037 1.96-.112.71-.075 1.344-.187 1.904-.336v1.512c-.597.299-1.437.616-2.52.952-1.082.299-2.24.448-3.472.448-2.314 0-4.088-.448-5.32-1.344-1.232-.933-1.848-2.632-1.848-5.096V80.968Z" fill="#F74F70"/><path d="m78.173 107.344 4.424-.728v-39.48l-4.368-.728v-1.232L85.621 64l.616.504v16.8h.336c1.494-.635 3.006-1.25 4.536-1.848a13.726 13.726 0 0 1 4.928-.896c2.838 0 4.984.597 6.44 1.792 1.456 1.157 2.184 3.192 2.184 6.104v20.16l4.368.728v1.288h-12.32v-1.288l4.312-.672V86.904c0-2.165-.56-3.677-1.68-4.536-1.12-.859-2.576-1.288-4.368-1.288-1.829 0-3.434.205-4.816.616a35.15 35.15 0 0 0-3.92 1.456v23.52l4.256.672v1.288h-12.32v-1.288Z" fill="#F74F70"/><path d="m128.351 106.616 5.152.728v1.288h-13.16v-1.288l4.424-.728V80.968h-4.312V79.68l4.312-.784v-5.04c0-3.248 1.026-5.73 3.08-7.448 2.053-1.755 4.76-2.632 8.12-2.632 1.157 0 2.314.056 3.472.168 1.194.075 2.165.187 2.912.336v6.16h-1.736l-.952-4.424a10.21 10.21 0 0 0-1.68-.224 34.445 34.445 0 0 0-2.016-.056c-2.166 0-3.976.597-5.432 1.792-1.456 1.157-2.184 3.379-2.184 6.664v4.816h17.304v27.608l4.592.728v1.288h-12.6v-1.288l4.424-.728V80.968h-13.72v25.648Z" fill="#F74F70"/><path d="m152.222 79.848 7.28-1.12.56.504v3.36h.224c.896-1.157 2.072-2.128 3.528-2.912 1.493-.784 3.024-1.176 4.592-1.176.448 0 .84.037 1.176.112.336.037.578.075.728.112v3.136a41.834 41.834 0 0 0-1.008-.112 12.464 12.464 0 0 0-1.232-.056c-1.68 0-3.174.224-4.48.672-1.307.448-2.427 1.139-3.36 2.072v22.176l5.04.728v1.288h-13.104v-1.288l4.424-.728V81.752l-4.368-.672v-1.232Z" fill="#F74F70"/><path d="M196.946 93.512h-20.944c.038 4.443 1.008 7.784 2.912 10.024 1.904 2.24 4.611 3.36 8.12 3.36 1.718 0 3.267-.205 4.648-.616a14.984 14.984 0 0 0 3.808-1.848v2.016c-.97.859-2.24 1.549-3.808 2.072-1.568.485-3.416.728-5.544.728-2.501 0-4.629-.411-6.384-1.232-1.754-.821-3.192-1.923-4.312-3.304-1.082-1.419-1.885-3.08-2.408-4.984-.485-1.941-.728-4.013-.728-6.216 0-2.315.336-4.405 1.008-6.272.672-1.867 1.587-3.435 2.744-4.704a11.728 11.728 0 0 1 4.088-2.912 11.956 11.956 0 0 1 4.984-1.064c2.203 0 4.051.392 5.544 1.176 1.531.747 2.744 1.792 3.64 3.136.934 1.344 1.606 2.93 2.016 4.76.411 1.792.616 3.715.616 5.768v.112Zm-11.928-12.936c-2.8 0-4.946.97-6.44 2.912-1.456 1.904-2.314 4.648-2.576 8.232l16.744-.392c0-3.584-.634-6.272-1.904-8.064-1.232-1.792-3.173-2.688-5.824-2.688Z" fill="#F74F70"/><path d="M16.968 4.256c4.965 0 8.53.97 10.696 2.912 2.165 1.941 3.23 4.61 3.192 8.008 0 2.128-.373 3.957-1.12 5.488-.71 1.53-1.68 2.781-2.912 3.752-1.232.933-2.707 1.643-4.424 2.128-1.68.448-3.51.672-5.488.672-1.344 0-2.464-.056-3.36-.168a80.95 80.95 0 0 1-2.744-.392V42.28l6.384.952v1.4H1.512v-1.4l5.32-.952V6.608l-5.32-.952v-1.4h15.456ZM16.744 25.2c3.136 0 5.563-.728 7.28-2.184 1.755-1.456 2.632-3.939 2.632-7.448 0-3.472-.765-5.88-2.296-7.224-1.53-1.381-3.976-2.072-7.336-2.072h-6.216v18.536c.933.15 1.867.261 2.8.336.933.037 1.979.056 3.136.056Z" fill="#fff"/><path d="M33.115 1.176 40.507 0l.56.504v42.112l4.592.728v1.288h-12.6v-1.288l4.424-.728V2.8l-4.368-.392V1.176Z" fill="#fff"/><path d="m56.956 29.008 7.84-1.456v-3.36c0-2.688-.392-4.61-1.176-5.768-.746-1.157-2.464-1.736-5.152-1.736-1.12 0-2.128.093-3.024.28a15.13 15.13 0 0 0-2.408.616l-1.288 4.984h-1.736v-6.496c1.083-.261 2.54-.579 4.368-.952 1.867-.373 3.603-.56 5.208-.56 3.286 0 5.563.728 6.832 2.184 1.307 1.419 1.96 3.547 1.96 6.384v19.32l4.368.672v1.288c-.485.187-1.12.355-1.904.504-.784.15-1.586.224-2.408.224-1.157 0-1.997-.243-2.52-.728-.522-.485-.802-1.213-.84-2.184h-.336c-.82.71-1.848 1.419-3.08 2.128-1.232.71-2.912 1.064-5.04 1.064-2.538 0-4.592-.747-6.16-2.24-1.568-1.493-2.352-3.453-2.352-5.88 0-2.464.803-4.33 2.408-5.6 1.643-1.307 3.79-2.203 6.44-2.688Zm1.232 13.776c1.382 0 2.632-.243 3.752-.728 1.158-.485 2.11-1.083 2.856-1.792V30.128l-7.168.728c-2.314.224-3.864.877-4.648 1.96-.746 1.083-1.12 2.427-1.12 4.032 0 1.83.504 3.285 1.512 4.368 1.046 1.045 2.651 1.568 4.816 1.568Z" fill="#fff"/><path d="M77.893 53.144c1.717 0 3.099-.467 4.144-1.4 1.045-.896 1.96-2.352 2.744-4.368l1.064-2.912-10.976-27.608-2.968-.56v-1.288h11.088v1.288l-4.032.784 8.568 22.568h.336l8.12-22.4-3.528-.952v-1.288h9.016v1.288l-2.856.56L86.909 47.88c-1.008 2.725-2.072 4.704-3.192 5.936-1.083 1.27-2.725 1.904-4.928 1.904-.784 0-1.53-.093-2.24-.28a8.945 8.945 0 0 1-2.072-.84v-1.736c.485.075 1.027.13 1.624.168.597.075 1.195.112 1.792.112Z" fill="#fff"/><path d="M109.763 2.856c.747 0 1.4.261 1.96.784.56.485.84 1.101.84 1.848 0 .71-.28 1.344-.84 1.904-.56.523-1.213.784-1.96.784-.821 0-1.493-.261-2.016-.784-.485-.56-.728-1.195-.728-1.904 0-.747.243-1.363.728-1.848.523-.523 1.195-.784 2.016-.784Zm-5.992 12.992 7.504-1.12.504.504v27.384l4.592.728v1.288h-12.656v-1.288l4.424-.728V17.752l-4.368-.672v-1.232Z" fill="#fff"/><path d="m118.259 43.344 4.424-.728V17.752l-4.368-.672v-1.232l7.28-1.12.56.448v2.352h.168a68.823 68.823 0 0 1 4.704-2.016 14.32 14.32 0 0 1 5.096-.952c2.838 0 4.984.597 6.44 1.792 1.456 1.157 2.184 3.192 2.184 6.104v20.16l4.368.728v1.288h-12.32v-1.288l4.312-.672V22.904c0-2.165-.56-3.677-1.68-4.536-1.12-.859-2.576-1.288-4.368-1.288-1.792 0-3.378.243-4.76.728a55.184 55.184 0 0 0-3.976 1.456v23.408l4.256.672v1.288h-12.32v-1.288Z" fill="#fff"/><path d="M162.182 55.776c-2.427 0-4.443-.205-6.048-.616-1.568-.41-2.819-.952-3.752-1.624-.933-.672-1.587-1.419-1.96-2.24-.373-.784-.56-1.568-.56-2.352 0-1.12.467-2.203 1.4-3.248.933-1.045 2.464-2.035 4.592-2.968v-.168c-.747-.299-1.437-.84-2.072-1.624a4.152 4.152 0 0 1-.952-2.688c0-.896.28-1.736.84-2.52.597-.821 1.587-1.643 2.968-2.464v-.112c-1.381-.672-2.651-1.755-3.808-3.248-1.157-1.53-1.736-3.304-1.736-5.32 0-1.643.299-3.099.896-4.368.597-1.27 1.381-2.315 2.352-3.136a10.345 10.345 0 0 1 3.472-1.848 13.019 13.019 0 0 1 4.144-.672c1.083 0 2.035.075 2.856.224.859.112 1.699.336 2.52.672h.224l8.288-1.12h.056v3.192h-.056l-6.496-.56v.224c1.083.71 1.96 1.699 2.632 2.968.672 1.27 1.008 2.65 1.008 4.144 0 1.68-.299 3.155-.896 4.424a8.383 8.383 0 0 1-2.352 3.08c-.971.821-2.147 1.437-3.528 1.848-1.344.41-2.781.616-4.312.616-.821 0-1.475-.037-1.96-.112a79.923 79.923 0 0 1-1.568-.28 9.302 9.302 0 0 0-1.792 1.568c-.485.56-.728 1.139-.728 1.736 0 .747.243 1.363.728 1.848.523.485 1.344.728 2.464.728h8.288c2.613 0 4.779.448 6.496 1.344 1.717.896 2.576 2.557 2.576 4.984 0 3.024-1.269 5.395-3.808 7.112-2.501 1.717-5.973 2.576-10.416 2.576Zm7.056-31.416c0-2.576-.653-4.536-1.96-5.88-1.307-1.344-3.08-2.016-5.32-2.016-2.277 0-4.032.71-5.264 2.128-1.195 1.419-1.792 3.304-1.792 5.656 0 2.613.635 4.63 1.904 6.048 1.269 1.381 2.987 2.072 5.152 2.072 2.389 0 4.2-.728 5.432-2.184 1.232-1.456 1.848-3.397 1.848-5.824Zm-7.168 29.4c4.107 0 7-.672 8.68-2.016 1.68-1.344 2.52-2.93 2.52-4.76 0-1.419-.467-2.445-1.4-3.08-.896-.635-2.464-.952-4.704-.952h-8.288c-1.904.71-3.304 1.568-4.2 2.576-.859 1.008-1.288 2.035-1.288 3.08 0 1.493.635 2.725 1.904 3.696 1.269.97 3.528 1.456 6.776 1.456Z" fill="#fff"/></svg>