<svg fill="none" xmlns="http://www.w3.org/2000/svg" viewBox="0 0 366 255"><path d="M102.456 7.412c8.189 0 14.069 1.6 17.64 4.802 3.571 3.202 5.326 7.604 5.264 13.207 0 3.51-.615 6.527-1.847 9.051-1.17 2.524-2.77 4.587-4.802 6.188-2.032 1.54-4.464 2.709-7.296 3.51-2.771.738-5.788 1.108-9.051 1.108-2.217 0-4.064-.093-5.541-.277-1.478-.185-2.987-.4-4.526-.647v25.767l10.529 1.57V74h-25.86v-2.309l8.774-1.57v-58.83l-8.774-1.57V7.412h25.49Zm-.369 34.54c5.172 0 9.174-1.2 12.006-3.601 2.894-2.401 4.341-6.496 4.341-12.283 0-5.726-1.262-9.698-3.787-11.914-2.524-2.278-6.557-3.417-12.098-3.417H92.297v30.57c1.54.246 3.079.43 4.618.553 1.54.062 3.263.093 5.172.093Z" fill="#fff"/><path d="m129.086 2.332 12.19-1.939.924.831v69.451l7.573 1.2V74h-20.78v-2.124l7.296-1.2V5.01l-7.203-.647V2.332Z" fill="#fff"/><path d="m168.405 48.233 12.93-2.401V40.29c0-4.433-.647-7.603-1.94-9.512-1.231-1.909-4.063-2.863-8.496-2.863-1.847 0-3.51.154-4.988.462a24.969 24.969 0 0 0-3.971 1.015l-2.124 8.22h-2.863V26.9c1.786-.431 4.187-.954 7.204-1.57 3.078-.616 5.941-.924 8.589-.924 5.418 0 9.174 1.2 11.267 3.602 2.155 2.34 3.232 5.85 3.232 10.529v31.862l7.204 1.108v2.125c-.8.307-1.847.585-3.14.83-1.293.247-2.617.37-3.971.37-1.909 0-3.294-.4-4.156-1.2-.862-.8-1.324-2.001-1.385-3.602h-.555c-1.354 1.17-3.047 2.34-5.079 3.51-2.032 1.17-4.803 1.754-8.312 1.754-4.187 0-7.573-1.231-10.159-3.694-2.586-2.463-3.879-5.696-3.879-9.698 0-4.063 1.324-7.142 3.971-9.235 2.709-2.155 6.25-3.633 10.621-4.433Zm2.032 22.72c2.278 0 4.341-.4 6.188-1.201 1.908-.8 3.478-1.786 4.71-2.956V50.08l-11.822 1.2c-3.817.37-6.372 1.447-7.665 3.233-1.232 1.786-1.847 4.002-1.847 6.65 0 3.017.831 5.418 2.493 7.203 1.724 1.724 4.372 2.586 7.943 2.586Z" fill="#fff"/><path d="M202.934 88.038c2.832 0 5.11-.77 6.834-2.309 1.724-1.478 3.232-3.879 4.525-7.204l1.755-4.802-18.102-45.531-4.894-.924v-2.124h18.286v2.124l-6.65 1.293 14.131 37.22h.554l13.391-36.943-5.818-1.57v-2.124h14.869v2.124l-4.71.924-19.302 51.165c-1.663 4.494-3.417 7.757-5.264 9.79-1.786 2.093-4.495 3.14-8.128 3.14-1.293 0-2.524-.155-3.694-.463a14.739 14.739 0 0 1-3.417-1.385v-2.863c.8.123 1.693.216 2.678.277.985.123 1.97.185 2.956.185Z" fill="#fff"/><path d="M255.494 5.103c1.231 0 2.309.431 3.232 1.293.924.8 1.385 1.816 1.385 3.048 0 1.17-.461 2.216-1.385 3.14-.923.862-2.001 1.293-3.232 1.293-1.355 0-2.463-.431-3.325-1.293-.8-.924-1.201-1.97-1.201-3.14 0-1.232.401-2.248 1.201-3.048.862-.862 1.97-1.293 3.325-1.293Zm-9.882 21.426 12.375-1.847.832.832v45.161l7.573 1.2V74h-20.873v-2.124l7.296-1.2V29.668l-7.203-1.108V26.53Z" fill="#fff"/><path d="m269.506 71.876 7.296-1.2V29.668l-7.204-1.108V26.53l12.006-1.847.924.74V29.3h.277a113.065 113.065 0 0 1 7.758-3.325c2.77-1.046 5.572-1.57 8.404-1.57 4.679 0 8.22.985 10.621 2.956 2.401 1.908 3.602 5.264 3.602 10.066v33.248l7.203 1.2V74h-20.318v-2.124l7.112-1.108V38.166c0-3.57-.924-6.064-2.771-7.48-1.847-1.417-4.248-2.125-7.204-2.125-2.955 0-5.572.4-7.85 1.2a90.71 90.71 0 0 0-6.557 2.402v38.605l7.019 1.108V74h-20.318v-2.124Z" fill="#fff"/><path d="M341.943 92.379c-4.002 0-7.327-.339-9.974-1.016-2.586-.677-4.649-1.57-6.188-2.678-1.539-1.109-2.617-2.34-3.232-3.695-.616-1.293-.924-2.586-.924-3.879 0-1.847.77-3.632 2.309-5.356 1.539-1.724 4.064-3.356 7.573-4.895v-.277c-1.231-.493-2.37-1.385-3.417-2.678a6.848 6.848 0 0 1-1.57-4.434c0-1.477.462-2.862 1.385-4.155.985-1.355 2.617-2.71 4.895-4.064v-.185c-2.278-1.108-4.371-2.894-6.28-5.356-1.909-2.525-2.863-5.45-2.863-8.774 0-2.71.492-5.11 1.478-7.204.985-2.093 2.278-3.817 3.878-5.172 1.663-1.354 3.572-2.37 5.727-3.047a21.466 21.466 0 0 1 6.834-1.109c1.785 0 3.355.123 4.71.37 1.416.184 2.801.554 4.156 1.108h.369l13.669-1.847h.092V29.3h-.092l-10.713-.923v.369c1.785 1.17 3.232 2.801 4.34 4.895 1.109 2.093 1.663 4.371 1.663 6.834 0 2.77-.493 5.203-1.478 7.296-.924 2.032-2.216 3.725-3.879 5.08-1.601 1.354-3.54 2.37-5.818 3.047-2.217.678-4.587 1.016-7.112 1.016-1.354 0-2.432-.061-3.232-.184-.739-.123-1.601-.277-2.586-.462-1.17.8-2.155 1.662-2.955 2.586-.801.923-1.201 1.878-1.201 2.863 0 1.231.4 2.247 1.201 3.047.862.8 2.216 1.201 4.063 1.201h13.669c4.31 0 7.881.739 10.713 2.217 2.832 1.477 4.248 4.217 4.248 8.22 0 4.986-2.093 8.896-6.28 11.728-4.125 2.833-9.851 4.249-17.178 4.249Zm11.637-51.812c0-4.248-1.078-7.48-3.232-9.697-2.155-2.216-5.08-3.325-8.774-3.325-3.756 0-6.65 1.17-8.682 3.51-1.97 2.34-2.955 5.449-2.955 9.328 0 4.31 1.047 7.634 3.14 9.974 2.093 2.278 4.926 3.417 8.497 3.417 3.94 0 6.926-1.2 8.958-3.602 2.032-2.4 3.048-5.602 3.048-9.604Zm-11.822 48.487c6.773 0 11.545-1.108 14.316-3.325 2.77-2.216 4.155-4.833 4.155-7.85 0-2.34-.769-4.033-2.308-5.08-1.478-1.046-4.064-1.57-7.758-1.57h-13.669c-3.14 1.17-5.449 2.586-6.926 4.249-1.416 1.662-2.125 3.355-2.125 5.08 0 2.462 1.047 4.494 3.14 6.095 2.094 1.6 5.819 2.4 11.175 2.4Z" fill="#fff"/><path fill-rule="evenodd" clip-rule="evenodd" d="m136.219 160.202-7.296 1.201v2.124h20.319v-2.124l-7.019-1.109v-38.789a58.015 58.015 0 0 1 6.464-2.401c2.278-.677 4.926-1.016 7.943-1.016 2.955 0 5.357.708 7.204 2.124 1.847 1.416 2.77 3.91 2.77 7.481v32.601l-7.111 1.109v2.124h20.318v-2.124l-7.204-1.201v-33.248c0-4.802-1.2-8.158-3.601-10.067-2.402-1.97-5.942-2.955-10.621-2.955a22.64 22.64 0 0 0-8.128 1.478 269.116 269.116 0 0 0-7.48 3.048h-.554V90.751l-1.016-.831-12.191 1.94v2.031l7.203 1.2v65.111Zm-49.462-64.28c-.923-.861-2-1.292-3.232-1.292-1.354 0-2.463.43-3.325 1.293-.8.8-1.2 1.816-1.2 3.048 0 1.169.4 2.216 1.2 3.14.862.862 1.97 1.293 3.325 1.293 1.231 0 2.309-.431 3.232-1.293.924-.924 1.386-1.971 1.386-3.14 0-1.232-.462-2.248-1.386-3.048Zm-.738 18.287-12.376 1.847v2.032l7.204 1.108v41.006l-7.296 1.201v2.124h20.872v-2.124l-7.573-1.201V115.04l-.831-.831Zm-35.131 39.898-13.3-39.436h-4.155l-11.545 38.604h-.462l-10.62-35.095 6.557-1.385v-2.124H0v2.124l4.248 1.385 14.13 45.347h3.972l12.006-39.159h.277l13.576 39.159h3.972L65.48 118.18l4.34-1.385v-2.124H55.136v2.124l6.465 1.385-10.252 35.927h-.461Zm52.304-36.204h-7.11v-2.124l7.11-1.293v-11.175l5.911-.923v12.283h14.869v3.232h-14.869v34.172c0 3.017.647 5.11 1.94 6.28s3.786 1.755 7.48 1.755c.985 0 2.063-.062 3.233-.185a20.655 20.655 0 0 0 3.14-.554v2.493c-.985.493-2.371 1.016-4.156 1.57-1.786.493-3.694.739-5.726.739-3.817 0-6.742-.739-8.774-2.216-2.032-1.539-3.048-4.341-3.048-8.405v-35.649Zm47.636 132.973-8.497-1.201v-42.298h14.038v-3.233h-14.038v-7.942c0-5.48.893-9.174 2.678-11.083 1.847-1.909 4.218-2.863 7.112-2.863.8 0 1.57.031 2.308.092.801.062 1.601.185 2.402.37l1.57 7.296h2.863v-10.159c-1.17-.247-2.555-.431-4.156-.554a41.077 41.077 0 0 0-4.895-.277c-2.155 0-4.218.369-6.188 1.108a13.202 13.202 0 0 0-4.987 3.14c-1.416 1.416-2.555 3.171-3.417 5.264-.801 2.032-1.201 4.402-1.201 7.111v8.312l-7.111 1.293v2.125h7.111v42.298l-7.296 1.201V253h21.704v-2.124Zm24.483-65.48c-.923-.862-2.001-1.293-3.232-1.293-1.355 0-2.463.431-3.325 1.293-.801.8-1.201 1.816-1.201 3.048 0 1.17.4 2.216 1.201 3.14.862.862 1.97 1.293 3.325 1.293 1.231 0 2.309-.431 3.232-1.293.924-.924 1.385-1.97 1.385-3.14 0-1.232-.461-2.248-1.385-3.048Zm-.739 18.286-12.375 1.847v2.032l7.203 1.109v41.005l-7.296 1.201V253h20.873v-2.124l-7.574-1.201v-45.161l-.831-.832Zm11.611 1.847 12.006-1.847.924.832v5.541h.369c1.478-1.909 3.417-3.51 5.819-4.803 2.462-1.293 4.987-1.939 7.573-1.939.738 0 1.385.062 1.939.185.554.061.954.123 1.201.184v5.172a68.781 68.781 0 0 0-1.663-.184 20.367 20.367 0 0 0-2.031-.093c-2.771 0-5.234.37-7.389 1.108-2.155.739-4.002 1.878-5.541 3.418v36.572l8.312 1.201V253h-21.611v-2.124l7.296-1.201V208.67l-7.204-1.109v-2.032Zm39.219 22.535h34.541v-.185c0-3.386-.339-6.557-1.016-9.512-.677-3.017-1.785-5.634-3.325-7.85-1.477-2.217-3.478-3.941-6.003-5.172-2.463-1.293-5.51-1.94-9.143-1.94-2.894 0-5.634.585-8.22 1.755a19.32 19.32 0 0 0-6.741 4.803c-1.909 2.093-3.418 4.679-4.526 7.757-1.108 3.079-1.662 6.527-1.662 10.344 0 3.633.4 7.05 1.2 10.252.862 3.14 2.186 5.879 3.972 8.219 1.847 2.278 4.217 4.095 7.111 5.449 2.894 1.355 6.403 2.032 10.528 2.032 3.51 0 6.558-.4 9.144-1.201 2.586-.862 4.679-2.001 6.28-3.417v-3.325a24.75 24.75 0 0 1-6.28 3.048c-2.278.677-4.834 1.016-7.666 1.016-5.787 0-10.251-1.847-13.391-5.541-3.14-3.695-4.741-9.205-4.803-16.532Zm4.249-16.531c2.462-3.202 6.003-4.803 10.62-4.803 4.372 0 7.573 1.478 9.605 4.433 2.094 2.956 3.14 7.389 3.14 13.299l-27.614.647c.431-5.911 1.847-10.436 4.249-13.576Z" fill="#FF4F6E"/></svg>